<svg width="76" height="41" viewBox="0 0 76 41" fill="none" xmlns="http://www.w3.org/2000/svg">
<path d="M1.17 7.418H9.468V8.966H3.006V12.98H7.83V14.438H3.006V20H1.17V7.418ZM12.3871 20.27C11.3431 20.27 10.5031 20.006 9.86709 19.478C9.24309 18.938 8.93109 18.212 8.93109 17.3C8.93109 16.34 9.23109 15.602 9.83109 15.086C10.4431 14.558 11.3071 14.294 12.4231 14.294C13.6111 14.294 14.6191 14.534 15.4471 15.014V14.564C15.4471 13.88 15.2371 13.376 14.8171 13.052C14.4091 12.716 13.7611 12.548 12.8731 12.548C12.3451 12.548 11.8291 12.602 11.3251 12.71C10.8331 12.806 10.3891 12.944 9.99309 13.124V11.648C10.3531 11.48 10.8211 11.348 11.3971 11.252C11.9731 11.144 12.5311 11.09 13.0711 11.09C14.4991 11.09 15.5551 11.408 16.2391 12.044C16.9351 12.668 17.2831 13.538 17.2831 14.654V20H15.5731V19.028C15.2011 19.436 14.7571 19.748 14.2411 19.964C13.7371 20.168 13.1191 20.27 12.3871 20.27ZM12.8371 18.884C13.4131 18.884 13.9351 18.77 14.4031 18.542C14.8711 18.314 15.2191 17.996 15.4471 17.588V16.418C14.6671 15.914 13.7971 15.662 12.8371 15.662C12.1411 15.662 11.6191 15.8 11.2711 16.076C10.9351 16.34 10.7671 16.748 10.7671 17.3C10.7671 18.356 11.4571 18.884 12.8371 18.884ZM19.5391 6.698H21.3571V20H19.5391V6.698ZM21.3751 15.626L25.3531 11.36H27.5671L23.5711 15.626L27.9811 20H25.7671L21.3751 15.626ZM34.5392 20.27C32.9432 20.27 31.6892 19.874 30.7772 19.082C29.8772 18.278 29.4272 17.15 29.4272 15.698C29.4272 14.282 29.8292 13.16 30.6332 12.332C31.4492 11.504 32.6072 11.09 34.1072 11.09C35.1032 11.09 35.9492 11.282 36.6452 11.666C37.3412 12.038 37.8632 12.56 38.2112 13.232C38.5712 13.892 38.7512 14.648 38.7512 15.5V16.4H31.1552C31.2152 17.216 31.5572 17.828 32.1812 18.236C32.8172 18.632 33.6752 18.83 34.7552 18.83C35.3072 18.83 35.8652 18.782 36.4292 18.686C36.9932 18.578 37.4912 18.44 37.9232 18.272V19.73C37.5392 19.886 37.0292 20.012 36.3932 20.108C35.7692 20.216 35.1512 20.27 34.5392 20.27ZM37.0412 15.122C37.0172 14.306 36.7472 13.676 36.2312 13.232C35.7272 12.776 35.0072 12.548 34.0712 12.548C33.1592 12.548 32.4512 12.782 31.9472 13.25C31.4432 13.718 31.1792 14.342 31.1552 15.122H37.0412ZM40.3784 13.898H46.1204V15.392H40.3784V13.898ZM51.4336 20.27C50.5576 20.27 49.8796 20.018 49.3996 19.514C48.9316 19.01 48.6976 18.296 48.6976 17.372V12.764H47.3836V11.36H48.6976V8.768H50.5336V11.36H52.6576V12.764H50.5336V17.246C50.5336 17.822 50.6416 18.23 50.8576 18.47C51.0856 18.71 51.4936 18.83 52.0816 18.83C52.4296 18.83 52.7776 18.752 53.1256 18.596V20.036C52.6696 20.192 52.1056 20.27 51.4336 20.27ZM54.836 6.698H56.654V12.548C57.482 11.576 58.586 11.09 59.966 11.09C61.118 11.09 61.976 11.396 62.54 12.008C63.104 12.62 63.386 13.442 63.386 14.474V20H61.568V14.654C61.568 13.25 60.896 12.548 59.552 12.548C58.976 12.548 58.436 12.686 57.932 12.962C57.44 13.226 57.014 13.634 56.654 14.186V20H54.836V6.698ZM70.381 20.27C68.785 20.27 67.531 19.874 66.619 19.082C65.719 18.278 65.269 17.15 65.269 15.698C65.269 14.282 65.671 13.16 66.475 12.332C67.291 11.504 68.449 11.09 69.949 11.09C70.945 11.09 71.791 11.282 72.487 11.666C73.183 12.038 73.705 12.56 74.053 13.232C74.413 13.892 74.593 14.648 74.593 15.5V16.4H66.997C67.057 17.216 67.399 17.828 68.023 18.236C68.659 18.632 69.517 18.83 70.597 18.83C71.149 18.83 71.707 18.782 72.271 18.686C72.835 18.578 73.333 18.44 73.765 18.272V19.73C73.381 19.886 72.871 20.012 72.235 20.108C71.611 20.216 70.993 20.27 70.381 20.27ZM72.883 15.122C72.859 14.306 72.589 13.676 72.073 13.232C71.569 12.776 70.849 12.548 69.913 12.548C69.001 12.548 68.293 12.782 67.789 13.25C67.285 13.718 67.021 14.342 66.997 15.122H72.883Z" fill="#636363"/>
<path d="M0.45 29.248V27.034L9.09 22.804V26.098L4.626 28.15L9.09 30.202V33.496L0.45 29.248ZM15.1249 21.148H18.3649L13.2349 34H9.99492L15.1249 21.148ZM19.2586 30.202L23.7226 28.15L19.2586 26.098V22.804L27.8986 27.034V29.248L19.2586 33.496V30.202Z" fill="#4ADADA"/>
<path d="M30.6755 34.27C30.2795 34.27 29.8595 34.228 29.4155 34.144C28.9835 34.072 28.6595 33.976 28.4435 33.856V31.048C28.6235 31.132 28.8515 31.198 29.1275 31.246C29.4155 31.294 29.7035 31.318 29.9915 31.318C30.5195 31.318 30.8915 31.21 31.1075 30.994C31.3235 30.766 31.4315 30.394 31.4315 29.878V21.418H34.6175V30.238C34.6175 31.474 34.2815 32.458 33.6095 33.19C32.9375 33.91 31.9595 34.27 30.6755 34.27ZM40.066 34.27C39.274 34.27 38.488 34.192 37.708 34.036C36.928 33.892 36.286 33.688 35.782 33.424V30.562C36.43 30.898 37.102 31.15 37.798 31.318C38.506 31.486 39.178 31.57 39.814 31.57C40.402 31.57 40.846 31.48 41.146 31.3C41.446 31.12 41.596 30.862 41.596 30.526C41.596 30.274 41.512 30.058 41.344 29.878C41.188 29.686 40.954 29.512 40.642 29.356C40.33 29.2 39.844 28.984 39.184 28.708C38.02 28.216 37.174 27.67 36.646 27.07C36.118 26.47 35.854 25.732 35.854 24.856C35.854 24.136 36.052 23.494 36.448 22.93C36.856 22.366 37.42 21.928 38.14 21.616C38.86 21.304 39.688 21.148 40.624 21.148C41.392 21.148 42.076 21.208 42.676 21.328C43.276 21.448 43.852 21.64 44.404 21.904V24.694C43.348 24.142 42.286 23.866 41.218 23.866C40.642 23.866 40.18 23.962 39.832 24.154C39.496 24.334 39.328 24.598 39.328 24.946C39.328 25.294 39.502 25.576 39.85 25.792C40.198 26.008 40.84 26.302 41.776 26.674C42.628 27.022 43.288 27.364 43.756 27.7C44.236 28.036 44.584 28.426 44.8 28.87C45.016 29.314 45.124 29.878 45.124 30.562C45.124 31.726 44.698 32.638 43.846 33.298C43.006 33.946 41.746 34.27 40.066 34.27ZM52.7981 34.27C51.5261 34.27 50.3741 33.994 49.3421 33.442C48.3221 32.89 47.5121 32.122 46.9121 31.138C46.3241 30.142 46.0301 29.002 46.0301 27.718C46.0301 26.434 46.3241 25.294 46.9121 24.298C47.5121 23.302 48.3221 22.528 49.3421 21.976C50.3741 21.424 51.5261 21.148 52.7981 21.148C54.0581 21.148 55.1981 21.424 56.2181 21.976C57.2501 22.528 58.0601 23.302 58.6481 24.298C59.2361 25.294 59.5301 26.434 59.5301 27.718C59.5301 29.002 59.2361 30.142 58.6481 31.138C58.0601 32.122 57.2501 32.89 56.2181 33.442C55.1981 33.994 54.0581 34.27 52.7981 34.27ZM52.7981 31.282C53.4341 31.282 54.0161 31.138 54.5441 30.85C55.0721 30.562 55.4921 30.148 55.8041 29.608C56.1161 29.068 56.2721 28.438 56.2721 27.718C56.2721 26.998 56.1161 26.374 55.8041 25.846C55.5041 25.306 55.0901 24.892 54.5621 24.604C54.0341 24.304 53.4461 24.154 52.7981 24.154C52.1381 24.154 51.5441 24.304 51.0161 24.604C50.4881 24.892 50.0681 25.306 49.7561 25.846C49.4561 26.374 49.3061 26.998 49.3061 27.718C49.3061 28.438 49.4561 29.068 49.7561 29.608C50.0681 30.148 50.4881 30.562 51.0161 30.85C51.5561 31.138 52.1501 31.282 52.7981 31.282ZM60.7866 21.418H63.9366L68.5626 28.906V21.418H71.7486V34H68.6166L63.9726 26.494V34H60.7866V21.418Z" fill="#53B6FE"/>
</svg>
